# xmcd CD database file
# Copyright (C) 1997 Ti Kan
#
# Track frame offsets:
#  182
#  11847
#  24672
#  36720
#  50392
#  60945
#  74957
#  83917
#  94277
#  109170
#
# Disc length: 1617 seconds
#
# Revision: 1
# Processed by: cddbd v1.4b41PL1 Copyright (c) Steve Scherf et al.
# Submitted via: CDWizzard Release:4.32
#
DISCID=8e064f0a
DTITLE=Various Artist - The 101 Greatest Country Hits Vol 7:  Country Nights
DYEAR=1900
DGENRE=
TTITLE0=Don't It Make My Brown Eyes Blue
TTITLE1=In The Misty Moonlight
TTITLE2=Right or Wrong
TTITLE3=You've Never Been This Far Before
TTITLE4=Mr. Sandman
TTITLE5=Don't Touch Me
TTITLE6=Let's Think About Living
TTITLE7=Once a Day
TTITLE8=He Stopped Loving Her Today
TTITLE9=Satin Sheets
EXTD=
EXTT0=CRYSTAL GAYLE
EXTT1=JERRY WALLACE
EXTT2=WANDA JACKSON
EXTT3=CONWAY TWITTY
EXTT4=EMMYLOU HARRIS
EXTT5=JEANNIE SEELY
EXTT6=BOB LUMAN
EXTT7=CONNIE SMITH
EXTT8=GEORGE JONES  
EXTT9=JEANNE PRUETT
PLAYORDER=
